<svg xmlns="http://www.w3.org/2000/svg" version="1.1" xmlns:xlink="http://www.w3.org/1999/xlink" xmlns:svgjs="http://svgjs.dev/svgjs" viewBox="0 0 800 800" opacity="1"><defs><linearGradient x1="50%" y1="0%" x2="50%" y2="100%" id="hhhorizon-grad"><stop stop-color="hsl(340, 45%, 50%)" stop-opacity="1" offset="25%"></stop><stop stop-color="hsl(340, 45%, 80%)" stop-opacity="1" offset="100%"></stop></linearGradient><linearGradient x1="50%" y1="0%" x2="50%" y2="100%" id="hhhorizon-grad2"><stop stop-color="hsl(340, 45%, 80%)" stop-opacity="1" offset="0%"></stop><stop stop-color="hsl(340, 45%, 50%)" stop-opacity="1" offset="75%"></stop></linearGradient><clipPath id="SvgjsClipPath1030"><rect width="800" height="34" x="0" y="0"></rect><rect width="800" height="33" x="0" y="24"></rect><rect width="800" height="32" x="0" y="48"></rect><rect width="800" height="31" x="0" y="73"></rect><rect width="800" height="30" x="0" y="97"></rect><rect width="800" height="29" x="0" y="121"></rect><rect width="800" height="28" x="0" y="145"></rect><rect width="800" height="27" x="0" y="170"></rect><rect width="800" height="26" x="0" y="194"></rect><rect width="800" height="25" x="0" y="218"></rect><rect width="800" height="24" x="0" y="242"></rect><rect width="800" height="23" x="0" y="267"></rect><rect width="800" height="22" x="0" y="291"></rect><rect width="800" height="21" x="0" y="315"></rect><rect width="800" height="20" x="0" y="339"></rect><rect width="800" height="19" x="0" y="364"></rect><rect width="800" height="18" x="0" y="388"></rect><rect width="800" height="17" x="0" y="412"></rect><rect width="800" height="16" x="0" y="436"></rect><rect width="800" height="15" x="0" y="461"></rect><rect width="800" height="14" x="0" y="485"></rect><rect width="800" height="13" x="0" y="509"></rect><rect width="800" height="12" x="0" y="533"></rect><rect width="800" height="11" x="0" y="558"></rect><rect width="800" height="10" x="0" y="582"></rect><rect width="800" height="9" x="0" y="606"></rect><rect width="800" height="8" x="0" y="630"></rect><rect width="800" height="7" x="0" y="655"></rect><rect width="800" height="6" x="0" y="679"></rect><rect width="800" height="5" x="0" y="703"></rect><rect width="800" height="4" x="0" y="727"></rect><rect width="800" height="3" x="0" y="752"></rect><rect width="800" height="2" x="0" y="776"></rect><rect width="800" height="1" x="0" y="800"></rect></clipPath><clipPath><rect width="800" height="1" x="0" y="34"></rect><rect width="800" height="2" x="0" y="68"></rect><rect width="800" height="3" x="0" y="102"></rect><rect width="800" height="4" x="0" y="136"></rect><rect width="800" height="5" x="0" y="170"></rect><rect width="800" height="6" x="0" y="204"></rect><rect width="800" height="7" x="0" y="238"></rect><rect width="800" height="8" x="0" y="272"></rect><rect width="800" height="9" x="0" y="306"></rect><rect width="800" height="10" x="0" y="340"></rect><rect width="800" height="11" x="0" y="374"></rect><rect width="800" height="12" x="0" y="408"></rect><rect width="800" height="13" x="0" y="442"></rect><rect width="800" height="14" x="0" y="476"></rect><rect width="800" height="15" x="0" y="510"></rect><rect width="800" height="16" x="0" y="544"></rect><rect width="800" height="17" x="0" y="578"></rect><rect width="800" height="18" x="0" y="612"></rect><rect width="800" height="19" x="0" y="646"></rect><rect width="800" height="20" x="0" y="680"></rect><rect width="800" height="21" x="0" y="714"></rect><rect width="800" height="22" x="0" y="748"></rect><rect width="800" height="23" x="0" y="782"></rect><rect width="800" height="24" x="0" y="816"></rect></clipPath></defs><rect width="800" height="800" fill="url(#hhhorizon-grad)" clip-path="url(&quot;#SvgjsClipPath1030&quot;)"></rect><circle r="400" cx="400" cy="0" fill="url(#hhhorizon-grad)" clip-path="url(&quot;#SvgjsClipPath1030&quot;)"></circle><circle r="400" cx="400" cy="800" fill="url(#hhhorizon-grad)" clip-path="url(&quot;#SvgjsClipPath1030&quot;)"></circle></svg>